<svg style="fill: white; " data-name="Capa 1" xmlns="http://www.w3.org/2000/svg" viewBox="0 0 263.41 111.43" >
                    <path class="cls-1"
                        d="M52.57,1.71A52.49,52.49,0,1,1,0,52.36,52.4,52.4,0,0,1,52.57,1.71ZM96.94,44.79A14.7,14.7,0,1,0,81.61,59.36,14.64,14.64,0,0,0,96.94,44.79ZM56.21,79.72A14.68,14.68,0,1,0,70.87,65,14.59,14.59,0,0,0,56.21,79.72ZM22.85,30A14.7,14.7,0,1,0,37.42,44.67,14.63,14.63,0,0,0,22.85,30ZM48.73,79.71C49.07,72,42.32,65,34.36,65a14.71,14.71,0,1,0-.47,29.42A14.59,14.59,0,0,0,48.73,79.71ZM37.83,23.06A14.69,14.69,0,1,0,52.54,8.38,14.62,14.62,0,0,0,37.83,23.06ZM52.46,63.23a9,9,0,0,0,9.16-8.88A9.11,9.11,0,1,0,43.41,54,9,9,0,0,0,52.46,63.23Z" />
                    <path class="cls-1"
                        d="M136.49,39.69l-7.83-25.88V39.69h-6.23V8H134l5.57,19,5.86-19h11.61V39.69h-7.48V13.81l-8,25.88Z" />
                    <path class="cls-1"
                        d="M175.29,40.18a11.58,11.58,0,0,1-9.92-4.81,19.31,19.31,0,0,1-3.5-11.65,18.55,18.55,0,0,1,3.55-11.61Q169,7.46,175.55,7.46t10,5A19.64,19.64,0,0,1,189,23.79a19.13,19.13,0,0,1-3.48,11.64Q182,40.19,175.29,40.18Zm.21-26.65q-5.85,0-5.85,10.28t5.85,10.3q5.67,0,5.66-10.28T175.5,13.53Z" />
                    <path class="cls-1" d="M216.74,8l-9.59,31.74h-8L189.63,8h7.91l6.35,22.69L210.5,8Z" />
                    <path class="cls-1" d="M227,8V39.69H219.6V8Z" />
                    <path class="cls-1" d="M256.05,14H240.94v6.51h11.88v6H240.94v6.93h15.11v6.28H233.39V8h22.66Z" />
                    <path class="cls-1"
                        d="M132.16,84.25V96.83H123.1V65.09H140a25.48,25.48,0,0,1,7.5.9,9.31,9.31,0,0,1,4.68,3.29A8.45,8.45,0,0,1,154,74.6q0,5.72-6.67,8.2l7.09,14H144.5l-5.9-12.58Zm0-13.51v8.09h5.51a17.48,17.48,0,0,0,3.93-.31,4.32,4.32,0,0,0,2.18-1.39,3.63,3.63,0,0,0,1-2.48,3.42,3.42,0,0,0-1-2.37A4,4,0,0,0,141.7,71a23.83,23.83,0,0,0-4.22-.25Z" />
                    <path class="cls-1"
                        d="M179.26,65.09l12,31.74h-9.66l-2.37-6.53H166.83l-2.4,6.53h-7.89l12.31-31.74ZM169,84.44h8.14l-4-11.14Z" />
                    <path class="cls-1"
                        d="M224.38,65.09V96.83h-7.67l-15-21.44c0,.55,0,.9.06,1.07a11.27,11.27,0,0,1,.11,1.37v19h-7V65.09h9.7L217.6,83.81a19.76,19.76,0,0,1-.17-2.12V65.09Z" />
                    <path class="cls-1"
                        d="M240.35,65.09V80l12-14.91H261l-9.22,11.33,11.53,20.41H253.4l-7.66-13.78-5.39,6.5v7.28h-8.83V65.09Z" />
                </svg>